# xmcd
#
# Track frame offsets: 
#        150
#        24300
#        44507
#        59057
#        80374
#        97348
#        120209
#        139236
#        160585
#        182114
#        200038
#        215927
#        231970
#
# Disc length: 3301 seconds
#
# Revision: 0
# Processed by: cddbd v1.5.2PL0 Copyright (c) Steve Scherf et al.
# Submitted via: ExactAudioCopy v1.3
#
DISCID=c00ce30d
DTITLE=Heather Newman - Rise From the Flames
DYEAR=2019
DGENRE=Blues
TTITLE0=I'm Coming For You
TTITLE1=Zakary
TTITLE2=She Sure Looks A Lot Like Me
TTITLE3=You Mean To Tell Me
TTITLE4=Rise From The Flames
TTITLE5=Water And Wine
TTITLE6=Lonely On Beale
TTITLE7=His Soul
TTITLE8=Take It Slow
TTITLE9=Coming Home
TTITLE10=What Goes Around
TTITLE11=Cheapshot
TTITLE12=That's All
EXTD=
EXTT0=
EXTT1=
EXTT2=
EXTT3=
EXTT4=
EXTT5=
EXTT6=
EXTT7=
EXTT8=
EXTT9=
EXTT10=
EXTT11=
EXTT12=
PLAYORDER=
